<svg width="20" height="20" viewBox="0 0 20 20" fill="none" xmlns="http://www.w3.org/2000/svg">
<path d="M5.99796 11.8748V17.0399L10.0042 15.3844V10.3518L5.99796 11.8748Z" fill="white"/>
<path d="M14.0021 11.8748V17.0399L18 15.3844V10.3518L14.0021 11.8748Z" fill="white"/>
<path d="M10.0042 5.17854V10.3518L14.0021 8.68811V3.65552L10.0042 5.17854Z" fill="white"/>
<path d="M14.0021 11.8748V17.0399L10.0042 15.3844V10.3518L14.0021 11.8748Z" fill="#3971E5"/>
<path d="M10.0042 5.17854V10.3518L5.99796 8.68811V3.65552L10.0042 5.17854Z" fill="#3971E5"/>
<path d="M5.99792 11.8748V17.0399L2 15.3844V10.3518L5.99792 11.8748Z" fill="#3971E5"/>
<path d="M10.0042 10.3517L14.0021 11.8747L18 10.3517L14.0021 8.68799L10.0042 10.3517Z" fill="#8CB2FE"/>
<path d="M2 10.3517L5.99792 11.8747L10.0041 10.3517L5.99792 8.68799L2 10.3517Z" fill="#8CB2FE"/>
<path d="M5.99796 3.65546L10.0042 5.17848L14.0021 3.65546L10.0042 2L5.99796 3.65546Z" fill="#8CB2FE"/>
</svg>
