<?xml version="1.0" ?>
<!-- Uploaded to: SVG Repo, www.svgrepo.com, Generator: SVG Repo Mixer Tools -->
<svg width="800px" height="800px" viewBox="0 0 48 48" data-name="Layer 1" id="Layer_1" xmlns="http://www.w3.org/2000/svg">
<defs>
<style>.cls-1{fill:#55aae1;}.cls-2{opacity:0.35;}</style>
</defs>
<title/>
<path class="cls-1" d="M42.33,38H5.67l-.25-.63a20,20,0,1,1,37.16,0ZM7,36H41A18,18,0,1,0,6,30,17.87,17.87,0,0,0,7,36Z"/>
<path class="cls-1" d="M39,31a1,1,0,0,1-1-1,14,14,0,0,0-26.83-5.6A13.78,13.78,0,0,0,10,30a1,1,0,0,1-2,0,15.8,15.8,0,0,1,1.34-6.4A16,16,0,0,1,40,30,1,1,0,0,1,39,31Z"/>
<path class="cls-1" d="M28,38a1,1,0,0,1-1-1,3,3,0,0,0-6,0,1,1,0,0,1-2,0,5,5,0,0,1,10,0A1,1,0,0,1,28,38Z"/>
<path class="cls-1" d="M26.8,34a1,1,0,0,1-.62-.22,1,1,0,0,1-.16-1.4l6.4-8A1,1,0,1,1,34,25.63l-6.4,8A1,1,0,0,1,26.8,34Z"/>
<g class="cls-2">
<path class="cls-1" d="M35.84,15.16a18.89,18.89,0,0,1,3.31,17.43A2,2,0,0,1,37.23,34H5.45a18.89,18.89,0,0,0,.9,3h35.3a18.92,18.92,0,0,0-5.81-21.84Z"/>
</g>
</svg>